<svg xmlns="http://www.w3.org/2000/svg" width="819pt" height="403pt" viewBox="0.00 0.00 818.58 402.96" xmlns:xlink="http://www.w3.org/1999/xlink">
<style>
a.external_repository_anchor {
  fill: #0366d6;
  text-decoration: underline;
}
</style><g id="graph0" class="graph" transform="scale(1 1) rotate(0) translate(4 398.96)">
<title>ySwiftCodeUpdaterDependenciesGraph</title>
<polygon fill="white" stroke="transparent" points="-4,4 -4,-398.96 814.58,-398.96 814.58,4 -4,4" />

<g id="node1" class="node">
<title>BonaFideCharacterSet</title>
<ellipse fill="none" stroke="black" cx="694.2" cy="-206.35" rx="98.08" ry="26.74" />
<text text-anchor="middle" x="694.2" y="-210.15" font-family="monospace" font-size="12px"><a href="https://github.com/YOCKOW/SwiftBonaFideCharacterSet.git" xlink:href="https://github.com/YOCKOW/SwiftBonaFideCharacterSet.git" class="external_repository_anchor">BonaFideCharacterSet</a></text>
<text text-anchor="middle" x="694.2" y="-195.15" font-family="monospace" font-size="12px">@1.6.2</text>
</g>

<g id="node5" class="node">
<title>Predicate</title>
<ellipse fill="none" stroke="black" cx="643.2" cy="-116.61" rx="47.25" ry="26.74" />
<text text-anchor="middle" x="643.2" y="-120.41" font-family="monospace" font-size="12px"><a href="https://github.com/YOCKOW/SwiftPredicate.git" xlink:href="https://github.com/YOCKOW/SwiftPredicate.git" class="external_repository_anchor">Predicate</a></text>
<text text-anchor="middle" x="643.2" y="-105.41" font-family="monospace" font-size="12px">@1.2.1</text>
</g>

<g id="edge1" class="edge">
<title>BonaFideCharacterSet-&gt;Predicate</title>
<path fill="none" stroke="black" d="M679.18,-179.5C674.01,-170.61 668.15,-160.53 662.68,-151.12" />
<polygon fill="black" stroke="black" points="665.65,-149.26 657.6,-142.37 659.6,-152.78 665.65,-149.26" />
</g>

<g id="node7" class="node">
<title>Ranges</title>
<ellipse fill="none" stroke="black" cx="643.2" cy="-26.87" rx="40.11" ry="26.74" />
<text text-anchor="middle" x="643.2" y="-30.67" font-family="monospace" font-size="12px"><a href="https://github.com/YOCKOW/SwiftRanges.git" xlink:href="https://github.com/YOCKOW/SwiftRanges.git" class="external_repository_anchor">Ranges</a></text>
<text text-anchor="middle" x="643.2" y="-15.67" font-family="monospace" font-size="12px">@3.1.1</text>
</g>

<g id="edge2" class="edge">
<title>BonaFideCharacterSet-&gt;Ranges</title>
<path fill="none" stroke="black" d="M701.15,-179.13C706.21,-155.05 710.4,-118.8 699.2,-89.74 694.22,-76.81 685.15,-64.91 675.74,-55.07" />
<polygon fill="black" stroke="black" points="678.11,-52.5 668.53,-47.97 673.19,-57.48 678.11,-52.5" />
</g>

<g id="node2" class="node">
<title>Bootstring</title>
<ellipse fill="none" stroke="black" cx="531.2" cy="-26.87" rx="52.15" ry="26.74" />
<text text-anchor="middle" x="531.2" y="-30.67" font-family="monospace" font-size="12px"><a href="https://github.com/YOCKOW/SwiftBootstring.git" xlink:href="https://github.com/YOCKOW/SwiftBootstring.git" class="external_repository_anchor">Bootstring</a></text>
<text text-anchor="middle" x="531.2" y="-15.67" font-family="monospace" font-size="12px">@1.1.0</text>
</g>

<g id="node3" class="node">
<title>CSV.swift</title>
<ellipse fill="none" stroke="black" cx="50.2" cy="-26.87" rx="50.41" ry="26.74" />
<text text-anchor="middle" x="50.2" y="-30.67" font-family="monospace" font-size="12px"><a href="https://github.com/yaslab/CSV.swift.git" xlink:href="https://github.com/yaslab/CSV.swift.git" class="external_repository_anchor">CSV.swift</a></text>
<text text-anchor="middle" x="50.2" y="-15.67" font-family="monospace" font-size="12px">@2.4.3</text>
</g>

<g id="node4" class="node">
<title>NetworkGear</title>
<ellipse fill="none" stroke="black" cx="562.2" cy="-296.09" rx="63.78" ry="26.74" />
<text text-anchor="middle" x="562.2" y="-299.89" font-family="monospace" font-size="12px"><a href="https://github.com/YOCKOW/SwiftNetworkGear.git" xlink:href="https://github.com/YOCKOW/SwiftNetworkGear.git" class="external_repository_anchor">NetworkGear</a></text>
<text text-anchor="middle" x="562.2" y="-284.89" font-family="monospace" font-size="12px">@0.14.0</text>
</g>

<g id="edge3" class="edge">
<title>NetworkGear-&gt;BonaFideCharacterSet</title>
<path fill="none" stroke="black" d="M595.51,-272.95C611.79,-262.13 631.62,-248.95 649.22,-237.25" />
<polygon fill="black" stroke="black" points="651.26,-240.1 657.65,-231.65 647.39,-234.27 651.26,-240.1" />
</g>

<g id="edge4" class="edge">
<title>NetworkGear-&gt;Bootstring</title>
<path fill="none" stroke="black" d="M558.76,-269.21C557.31,-258.13 555.63,-245.05 554.2,-233.22 547.05,-173.92 539.47,-104.89 535.05,-63.87" />
<polygon fill="black" stroke="black" points="538.52,-63.39 533.97,-53.82 531.56,-64.14 538.52,-63.39" />
</g>

<g id="node6" class="node">
<title>PublicSuffix</title>
<ellipse fill="none" stroke="black" cx="401.2" cy="-26.87" rx="59.29" ry="26.74" />
<text text-anchor="middle" x="401.2" y="-30.67" font-family="monospace" font-size="12px"><a href="https://github.com/YOCKOW/SwiftPublicSuffix.git" xlink:href="https://github.com/YOCKOW/SwiftPublicSuffix.git" class="external_repository_anchor">PublicSuffix</a></text>
<text text-anchor="middle" x="401.2" y="-15.67" font-family="monospace" font-size="12px">@2.0.1</text>
</g>

<g id="edge5" class="edge">
<title>NetworkGear-&gt;PublicSuffix</title>
<path fill="none" stroke="black" d="M554.52,-269.27C541.57,-228.48 512.58,-147.8 470.2,-89.74 461.5,-77.82 450.18,-66.5 439.23,-56.87" />
<polygon fill="black" stroke="black" points="441.25,-54 431.36,-50.18 436.71,-59.33 441.25,-54" />
</g>

<g id="edge6" class="edge">
<title>NetworkGear-&gt;Ranges</title>
<path fill="none" stroke="black" d="M560.48,-269.1C558.86,-228.77 559.9,-149.52 587.2,-89.74 592.96,-77.14 602.23,-65.32 611.58,-55.45" />
<polygon fill="black" stroke="black" points="614.12,-57.87 618.7,-48.31 609.16,-52.93 614.12,-57.87" />
</g>

<g id="node10" class="node">
<title>UnicodeSupplement</title>
<ellipse fill="none" stroke="black" cx="370.2" cy="-116.61" rx="90.52" ry="26.74" />
<text text-anchor="middle" x="370.2" y="-120.41" font-family="monospace" font-size="12px"><a href="https://github.com/YOCKOW/SwiftUnicodeSupplement.git" xlink:href="https://github.com/YOCKOW/SwiftUnicodeSupplement.git" class="external_repository_anchor">UnicodeSupplement</a></text>
<text text-anchor="middle" x="370.2" y="-105.41" font-family="monospace" font-size="12px">@1.0.0</text>
</g>

<g id="edge7" class="edge">
<title>NetworkGear-&gt;UnicodeSupplement</title>
<path fill="none" stroke="black" d="M528.32,-273.16C512.34,-262.09 493.49,-247.9 478.2,-233.22 456.15,-212.03 455.89,-202.02 435.2,-179.48 425.89,-169.33 415.25,-158.8 405.31,-149.38" />
<polygon fill="black" stroke="black" points="407.58,-146.7 397.89,-142.41 402.79,-151.8 407.58,-146.7" />
</g>

<g id="node11" class="node">
<title>yExtensions</title>
<ellipse fill="none" stroke="black" cx="367.2" cy="-206.35" rx="58.88" ry="26.74" />
<text text-anchor="middle" x="367.2" y="-210.15" font-family="monospace" font-size="12px"><a href="https://github.com/YOCKOW/ySwiftExtensions.git" xlink:href="https://github.com/YOCKOW/ySwiftExtensions.git" class="external_repository_anchor">yExtensions</a></text>
<text text-anchor="middle" x="367.2" y="-195.15" font-family="monospace" font-size="12px">@1.5.2</text>
</g>

<g id="edge8" class="edge">
<title>NetworkGear-&gt;yExtensions</title>
<path fill="none" stroke="black" d="M519.41,-275.84C489.44,-262.35 449.27,-244.27 417.72,-230.08" />
<polygon fill="black" stroke="black" points="418.78,-226.72 408.23,-225.81 415.91,-233.1 418.78,-226.72" />
</g>

<g id="edge9" class="edge">
<title>Predicate-&gt;Ranges</title>
<path fill="none" stroke="black" d="M643.2,-89.29C643.2,-81.32 643.2,-72.43 643.2,-63.94" />
<polygon fill="black" stroke="black" points="646.7,-63.87 643.2,-53.87 639.7,-63.87 646.7,-63.87" />
</g>

<g id="node8" class="node">
<title>StringComposition</title>
<ellipse fill="none" stroke="black" cx="201.2" cy="-296.09" rx="84.71" ry="26.74" />
<text text-anchor="middle" x="201.2" y="-299.89" font-family="monospace" font-size="12px"><a href="https://github.com/YOCKOW/SwiftStringComposition.git" xlink:href="https://github.com/YOCKOW/SwiftStringComposition.git" class="external_repository_anchor">StringComposition</a></text>
<text text-anchor="middle" x="201.2" y="-284.89" font-family="monospace" font-size="12px">@2.0.0</text>
</g>

<g id="edge10" class="edge">
<title>StringComposition-&gt;yExtensions</title>
<path fill="none" stroke="black" d="M243.52,-272.72C267.12,-260.25 296.54,-244.7 320.76,-231.9" />
<polygon fill="black" stroke="black" points="322.57,-234.9 329.77,-227.14 319.3,-228.71 322.57,-234.9" />
</g>

<g id="node9" class="node">
<title>TemporaryFile</title>
<ellipse fill="none" stroke="black" cx="373.2" cy="-296.09" rx="69.09" ry="26.74" />
<text text-anchor="middle" x="373.2" y="-299.89" font-family="monospace" font-size="12px"><a href="https://github.com/YOCKOW/SwiftTemporaryFile.git" xlink:href="https://github.com/YOCKOW/SwiftTemporaryFile.git" class="external_repository_anchor">TemporaryFile</a></text>
<text text-anchor="middle" x="373.2" y="-284.89" font-family="monospace" font-size="12px">@4.0.1</text>
</g>

<g id="edge11" class="edge">
<title>TemporaryFile-&gt;yExtensions</title>
<path fill="none" stroke="black" d="M371.4,-268.77C370.86,-260.8 370.25,-251.91 369.67,-243.42" />
<polygon fill="black" stroke="black" points="373.16,-243.09 368.98,-233.35 366.17,-243.57 373.16,-243.09" />
</g>

<g id="edge12" class="edge">
<title>UnicodeSupplement-&gt;Ranges</title>
<path fill="none" stroke="black" d="M440.85,-99.71C485.06,-88.84 542.79,-72.94 592.2,-53.74 595.9,-52.3 599.68,-50.69 603.43,-48.98" />
<polygon fill="black" stroke="black" points="605.11,-52.06 612.64,-44.6 602.1,-45.74 605.11,-52.06" />
</g>

<g id="edge13" class="edge">
<title>yExtensions-&gt;UnicodeSupplement</title>
<path fill="none" stroke="black" d="M368.1,-179.03C368.38,-171.06 368.68,-162.17 368.97,-153.68" />
<polygon fill="black" stroke="black" points="372.47,-153.73 369.32,-143.61 365.48,-153.49 372.47,-153.73" />
</g>

<g id="node12" class="node">
<title>ySwiftCodeUpdater</title>
<polygon fill="none" stroke="black" points="483.7,-394.96 358.7,-394.96 358.7,-358.96 483.7,-358.96 483.7,-394.96" />
<text text-anchor="middle" x="421.2" y="-373.26" font-family="monospace" font-size="12px">ySwiftCodeUpdater</text>
</g>

<g id="edge14" class="edge">
<title>ySwiftCodeUpdater-&gt;BonaFideCharacterSet</title>
<path fill="none" stroke="black" d="M483.94,-374.03C530.15,-369.62 592.18,-357.1 635.2,-322.96 660.45,-302.93 675.9,-269.2 684.62,-243.32" />
<polygon fill="black" stroke="black" points="688.06,-244.08 687.75,-233.49 681.38,-241.96 688.06,-244.08" />
</g>

<g id="edge15" class="edge">
<title>ySwiftCodeUpdater-&gt;CSV.swift</title>
<path fill="none" stroke="black" d="M358.65,-374.71C272.48,-371.59 123.75,-360.72 87.2,-322.96 19.48,-252.99 31.46,-125.97 42.46,-63.92" />
<polygon fill="black" stroke="black" points="45.95,-64.3 44.35,-53.83 39.07,-63.02 45.95,-64.3" />
</g>

<g id="edge16" class="edge">
<title>ySwiftCodeUpdater-&gt;NetworkGear</title>
<path fill="none" stroke="black" d="M451.8,-358.85C470.58,-348.34 494.99,-334.69 516.09,-322.89" />
<polygon fill="black" stroke="black" points="517.88,-325.89 524.9,-317.96 514.46,-319.79 517.88,-325.89" />
</g>

<g id="edge17" class="edge">
<title>ySwiftCodeUpdater-&gt;Ranges</title>
<path fill="none" stroke="black" d="M483.77,-375.43C575.25,-370.71 741.16,-346.16 801.2,-233.22 840.17,-159.93 740.87,-85.6 682.39,-49.81" />
<polygon fill="black" stroke="black" points="684.1,-46.76 673.73,-44.61 680.5,-52.76 684.1,-46.76" />
</g>

<g id="edge18" class="edge">
<title>ySwiftCodeUpdater-&gt;StringComposition</title>
<path fill="none" stroke="black" d="M373.74,-358.94C342.1,-347.6 300.13,-332.56 265.51,-320.14" />
<polygon fill="black" stroke="black" points="266.55,-316.8 255.95,-316.72 264.18,-323.39 266.55,-316.8" />
</g>

<g id="edge19" class="edge">
<title>ySwiftCodeUpdater-&gt;TemporaryFile</title>
<path fill="none" stroke="black" d="M410.79,-358.85C405.85,-350.73 399.76,-340.73 393.94,-331.16" />
<polygon fill="black" stroke="black" points="396.9,-329.29 388.71,-322.56 390.92,-332.92 396.9,-329.29" />
</g>

<g id="edge20" class="edge">
<title>ySwiftCodeUpdater-&gt;UnicodeSupplement</title>
<path fill="none" stroke="black" d="M358.63,-374.59C276.42,-371.33 138.75,-360.27 107.2,-322.96 39.52,-242.9 198.97,-173.41 298.24,-139.56" />
<polygon fill="black" stroke="black" points="299.58,-142.8 307.94,-136.29 297.35,-136.16 299.58,-142.8" />
</g>

<g id="edge21" class="edge">
<title>ySwiftCodeUpdater-&gt;yExtensions</title>
<path fill="none" stroke="black" d="M433.36,-358.95C447.24,-337.24 466.23,-298.94 451.2,-269.22 443.49,-253.96 430.04,-241.54 416.14,-231.94" />
<polygon fill="black" stroke="black" points="417.77,-228.83 407.47,-226.33 413.96,-234.7 417.77,-228.83" />
</g>
</g>
</svg>