<svg xmlns="http://www.w3.org/2000/svg" width="794pt" height="420pt" viewBox="0.00 0.00 793.60 419.93" xmlns:xlink="http://www.w3.org/1999/xlink">
<style>
a.external_repository_anchor {
  fill: #0366d6;
  text-decoration: underline;
}
</style><g id="graph0" class="graph" transform="scale(1 1) rotate(0) translate(4 415.93)">
<title>ySwiftCodeUpdaterDependenciesGraph</title>
<polygon fill="white" stroke="none" points="-4,4 -4,-415.93 789.6,-415.93 789.6,4 -4,4" />

<g id="node1" class="node">
<title>Bootstring</title>
<ellipse fill="none" stroke="black" cx="188.57" cy="-28.99" rx="51.62" ry="28.99" />
<text text-anchor="middle" x="188.57" y="-32.19" font-family="monospace" font-size="12px"><a href="https://github.com/YOCKOW/SwiftBootstring.git" xlink:href="https://github.com/YOCKOW/SwiftBootstring.git" class="external_repository_anchor">Bootstring</a></text>
<text text-anchor="middle" x="188.57" y="-15.69" font-family="monospace" font-size="12px">@1.1.0</text>
</g>

<g id="node2" class="node">
<title>CSV.swift</title>
<ellipse fill="none" stroke="black" cx="735.57" cy="-28.99" rx="50.03" ry="28.99" />
<text text-anchor="middle" x="735.57" y="-32.19" font-family="monospace" font-size="12px"><a href="https://github.com/yaslab/CSV.swift.git" xlink:href="https://github.com/yaslab/CSV.swift.git" class="external_repository_anchor">CSV.swift</a></text>
<text text-anchor="middle" x="735.57" y="-15.69" font-family="monospace" font-size="12px">@2.4.3</text>
</g>

<g id="node3" class="node">
<title>NetworkGear</title>
<ellipse fill="none" stroke="black" cx="226.57" cy="-310.94" rx="63.29" ry="28.99" />
<text text-anchor="middle" x="226.57" y="-314.14" font-family="monospace" font-size="12px"><a href="https://github.com/YOCKOW/SwiftNetworkGear.git" xlink:href="https://github.com/YOCKOW/SwiftNetworkGear.git" class="external_repository_anchor">NetworkGear</a></text>
<text text-anchor="middle" x="226.57" y="-297.64" font-family="monospace" font-size="12px">@0.16.0</text>
</g>

<g id="edge1" class="edge">
<title>NetworkGear-&gt;Bootstring</title>
<path fill="none" stroke="black" d="M219.73,-281.71C217.22,-270.61 214.51,-257.73 212.57,-245.95 202.51,-184.74 195.47,-113.07 191.73,-69.63" />
<polygon fill="black" stroke="black" points="195.24,-69.6 190.91,-59.93 188.26,-70.19 195.24,-69.6" />
</g>

<g id="node4" class="node">
<title>PublicSuffix</title>
<ellipse fill="none" stroke="black" cx="59.57" cy="-28.99" rx="59.57" ry="28.99" />
<text text-anchor="middle" x="59.57" y="-32.19" font-family="monospace" font-size="12px"><a href="https://github.com/YOCKOW/SwiftPublicSuffix.git" xlink:href="https://github.com/YOCKOW/SwiftPublicSuffix.git" class="external_repository_anchor">PublicSuffix</a></text>
<text text-anchor="middle" x="59.57" y="-15.69" font-family="monospace" font-size="12px">@2.2.0</text>
</g>

<g id="edge2" class="edge">
<title>NetworkGear-&gt;PublicSuffix</title>
<path fill="none" stroke="black" d="M210.26,-282.59C180.06,-231.97 115.46,-123.67 81.48,-66.72" />
<polygon fill="black" stroke="black" points="84.62,-65.14 76.49,-58.34 78.6,-68.72 84.62,-65.14" />
</g>

<g id="node5" class="node">
<title>Ranges</title>
<ellipse fill="none" stroke="black" cx="344.57" cy="-28.99" rx="39.95" ry="28.99" />
<text text-anchor="middle" x="344.57" y="-32.19" font-family="monospace" font-size="12px"><a href="https://github.com/YOCKOW/SwiftRanges.git" xlink:href="https://github.com/YOCKOW/SwiftRanges.git" class="external_repository_anchor">Ranges</a></text>
<text text-anchor="middle" x="344.57" y="-15.69" font-family="monospace" font-size="12px">@3.1.2</text>
</g>

<g id="edge3" class="edge">
<title>NetworkGear-&gt;Ranges</title>
<path fill="none" stroke="black" d="M221.66,-281.66C215.59,-237.98 210.02,-152.97 245.57,-93.98 257.9,-73.53 279.55,-58.43 299.47,-48.05" />
<polygon fill="black" stroke="black" points="300.87,-51.26 308.31,-43.72 297.79,-44.98 300.87,-51.26" />
</g>

<g id="node8" class="node">
<title>UnicodeSupplement</title>
<ellipse fill="none" stroke="black" cx="344.57" cy="-122.97" rx="89.8" ry="28.99" />
<text text-anchor="middle" x="344.57" y="-126.17" font-family="monospace" font-size="12px"><a href="https://github.com/YOCKOW/SwiftUnicodeSupplement.git" xlink:href="https://github.com/YOCKOW/SwiftUnicodeSupplement.git" class="external_repository_anchor">UnicodeSupplement</a></text>
<text text-anchor="middle" x="344.57" y="-109.67" font-family="monospace" font-size="12px">@1.3.0</text>
</g>

<g id="edge4" class="edge">
<title>NetworkGear-&gt;UnicodeSupplement</title>
<path fill="none" stroke="black" d="M243.65,-282.78C259.22,-258.04 282.88,-220.51 303.57,-187.97 309.08,-179.31 315.02,-170.01 320.63,-161.26" />
<polygon fill="black" stroke="black" points="323.51,-163.25 325.96,-152.94 317.61,-159.47 323.51,-163.25" />
</g>

<g id="node9" class="node">
<title>yExtensions</title>
<ellipse fill="none" stroke="black" cx="445.57" cy="-216.96" rx="57.98" ry="28.99" />
<text text-anchor="middle" x="445.57" y="-220.16" font-family="monospace" font-size="12px"><a href="https://github.com/YOCKOW/ySwiftExtensions.git" xlink:href="https://github.com/YOCKOW/ySwiftExtensions.git" class="external_repository_anchor">yExtensions</a></text>
<text text-anchor="middle" x="445.57" y="-203.66" font-family="monospace" font-size="12px">@1.9.1</text>
</g>

<g id="edge5" class="edge">
<title>NetworkGear-&gt;yExtensions</title>
<path fill="none" stroke="black" d="M272.48,-290.66C307.19,-276.08 354.93,-256.03 391.49,-240.67" />
<polygon fill="black" stroke="black" points="392.7,-243.96 400.57,-236.86 389.99,-237.51 392.7,-243.96" />
</g>

<g id="node6" class="node">
<title>StringComposition</title>
<ellipse fill="none" stroke="black" cx="429.57" cy="-310.94" rx="84.5" ry="28.99" />
<text text-anchor="middle" x="429.57" y="-314.14" font-family="monospace" font-size="12px"><a href="https://github.com/YOCKOW/SwiftStringComposition.git" xlink:href="https://github.com/YOCKOW/SwiftStringComposition.git" class="external_repository_anchor">StringComposition</a></text>
<text text-anchor="middle" x="429.57" y="-297.64" font-family="monospace" font-size="12px">@2.0.4</text>
</g>

<g id="edge6" class="edge">
<title>StringComposition-&gt;yExtensions</title>
<path fill="none" stroke="black" d="M434.5,-281.59C435.84,-273.91 437.31,-265.46 438.73,-257.3" />
<polygon fill="black" stroke="black" points="442.16,-258 440.43,-247.54 435.27,-256.8 442.16,-258" />
</g>

<g id="node7" class="node">
<title>TemporaryFile</title>
<ellipse fill="none" stroke="black" cx="638.57" cy="-310.94" rx="69.12" ry="28.99" />
<text text-anchor="middle" x="638.57" y="-314.14" font-family="monospace" font-size="12px"><a href="https://github.com/YOCKOW/SwiftTemporaryFile.git" xlink:href="https://github.com/YOCKOW/SwiftTemporaryFile.git" class="external_repository_anchor">TemporaryFile</a></text>
<text text-anchor="middle" x="638.57" y="-297.64" font-family="monospace" font-size="12px">@4.0.7</text>
</g>

<g id="edge7" class="edge">
<title>TemporaryFile-&gt;Ranges</title>
<path fill="none" stroke="black" d="M621.53,-282.46C593.11,-238.34 532.34,-150.92 463.57,-93.98 441.32,-75.56 412.95,-60.06 389.48,-48.92" />
<polygon fill="black" stroke="black" points="391.01,-45.77 380.46,-44.76 388.07,-52.13 391.01,-45.77" />
</g>

<g id="edge8" class="edge">
<title>TemporaryFile-&gt;yExtensions</title>
<path fill="none" stroke="black" d="M593.81,-288.61C564.92,-274.84 527.25,-256.89 497.12,-242.52" />
<polygon fill="black" stroke="black" points="498.7,-239.4 488.17,-238.26 495.69,-245.72 498.7,-239.4" />
</g>

<g id="edge9" class="edge">
<title>UnicodeSupplement-&gt;Ranges</title>
<path fill="none" stroke="black" d="M344.57,-93.63C344.57,-86.11 344.57,-77.85 344.57,-69.84" />
<polygon fill="black" stroke="black" points="348.07,-69.92 344.57,-59.92 341.07,-69.92 348.07,-69.92" />
</g>

<g id="edge10" class="edge">
<title>yExtensions-&gt;Ranges</title>
<path fill="none" stroke="black" d="M452.24,-187.89C456.84,-161.85 459.61,-122.87 443.57,-93.98 431.99,-73.11 410.4,-57.97 390.34,-47.67" />
<polygon fill="black" stroke="black" points="391.94,-44.56 381.41,-43.38 388.9,-50.87 391.94,-44.56" />
</g>

<g id="edge11" class="edge">
<title>yExtensions-&gt;UnicodeSupplement</title>
<path fill="none" stroke="black" d="M418.24,-191.07C407.24,-181.05 394.37,-169.32 382.49,-158.5" />
<polygon fill="black" stroke="black" points="384.92,-155.99 375.17,-151.84 380.21,-161.16 384.92,-155.99" />
</g>

<g id="node10" class="node">
<title>ySwiftCodeUpdater</title>
<polygon fill="none" stroke="black" points="491.57,-411.93 367.57,-411.93 367.57,-375.93 491.57,-375.93 491.57,-411.93" />
<text text-anchor="middle" x="429.57" y="-388.88" font-family="monospace" font-size="12px">ySwiftCodeUpdater</text>
</g>

<g id="edge12" class="edge">
<title>ySwiftCodeUpdater-&gt;CSV.swift</title>
<path fill="none" stroke="black" d="M492.01,-390.14C567.36,-385.34 687.6,-372.65 716.57,-339.93 783.5,-264.35 762.68,-133.51 746.68,-68.69" />
<polygon fill="black" stroke="black" points="750.12,-68.03 744.24,-59.22 743.34,-69.77 750.12,-68.03" />
</g>

<g id="edge13" class="edge">
<title>ySwiftCodeUpdater-&gt;NetworkGear</title>
<path fill="none" stroke="black" d="M386.03,-375.56C356.3,-363.7 316.6,-347.86 284.25,-334.95" />
<polygon fill="black" stroke="black" points="285.58,-331.71 274.99,-331.26 282.99,-338.21 285.58,-331.71" />
</g>

<g id="edge14" class="edge">
<title>ySwiftCodeUpdater-&gt;Ranges</title>
<path fill="none" stroke="black" d="M367.19,-389.86C294.52,-384.83 181,-371.94 154.57,-339.93 104.53,-279.32 145.18,-180.64 220.57,-93.98 240.68,-70.88 271.17,-54.98 296.89,-44.82" />
<polygon fill="black" stroke="black" points="298.02,-48.13 306.16,-41.34 295.56,-41.58 298.02,-48.13" />
</g>

<g id="edge15" class="edge">
<title>ySwiftCodeUpdater-&gt;StringComposition</title>
<path fill="none" stroke="black" d="M429.57,-375.75C429.57,-368.67 429.57,-360.14 429.57,-351.65" />
<polygon fill="black" stroke="black" points="433.07,-351.76 429.57,-341.76 426.07,-351.76 433.07,-351.76" />
</g>

<g id="edge16" class="edge">
<title>ySwiftCodeUpdater-&gt;TemporaryFile</title>
<path fill="none" stroke="black" d="M474.67,-375.46C504.88,-363.75 545.01,-348.2 578,-335.41" />
<polygon fill="black" stroke="black" points="578.96,-338.79 587.02,-331.92 576.44,-332.27 578.96,-338.79" />
</g>

<g id="edge17" class="edge">
<title>ySwiftCodeUpdater-&gt;UnicodeSupplement</title>
<path fill="none" stroke="black" d="M377.97,-375.53C361.82,-367.37 345.82,-355.84 336.57,-339.93 304.77,-285.21 318.36,-208.82 331.32,-163.09" />
<polygon fill="black" stroke="black" points="334.65,-164.19 334.15,-153.61 327.94,-162.2 334.65,-164.19" />
</g>

<g id="edge18" class="edge">
<title>ySwiftCodeUpdater-&gt;yExtensions</title>
<path fill="none" stroke="black" d="M481.18,-375.53C497.33,-367.37 513.33,-355.84 522.57,-339.93 535.52,-317.65 533.52,-305.28 522.57,-281.95 515.92,-267.77 504.41,-255.64 492.28,-245.88" />
<polygon fill="black" stroke="black" points="494.71,-243.32 484.61,-240.1 490.5,-248.91 494.71,-243.32" />
</g>
</g>
</svg>